<svg width="480" height="480" xmlns="http://www.w3.org/2000/svg">

 <g>
  <title>background</title>
  <rect fill="#2196f3" id="canvas_background" height="482" width="482" y="-1" x="-1"/>
 </g>
 <g>
  <title>Layer 1</title>
  <path id="svg_1" fill="#2196f3" d="m99.999983,201.050002l0,95.000019l296.000014,0l0,-95.000019l-296.000014,0z"/>
  <path id="svg_2" fill="#ffff07" d="m120,210.517603c-24.1594,4.5579 -27.6586,37.3474 -6,48.0764c6.8378,3.387 17.5398,1.456 25,1.456l47,0c7.16,0 16.077,-1.413 23,0.573c5.719,1.64 9.539,7.18 13.285,11.427c6.789,7.697 16.48,16.871 27.715,15.801c9.792,-0.933 17.54,-7.852 23.83,-14.801c4.884,-5.395 9.305,-12.22 17.17,-12.906c21.326,-1.861 43.587,-0.094 65,-0.094c8.267,0 20.638,2.296 28,-2.005c20.569,-12.017 16.757,-44.0375 -8,-47.6941c-15.708,-2.32 -33.121,-0.3009 -49,-0.3009l-98,0l-72,0c-11.881,0 -25.3121,-1.7374 -37,0.4676z"/>
  <path id="svg_3" fill="#2196f3" d="m245,246.689003c-17.877,5.082 -11.29,33.519 7,28.802c18.129,-4.675 10.991,-33.917 -7,-28.802z"/>
  <rect id="svg_4" height="33" width="66" y="0" x="66.5" stroke-opacity="null" stroke-width="null" stroke="null" fill="#2196f3"/>
  <path id="svg_6" d="m99.5,75" opacity="0.5" stroke-opacity="null" stroke-width="null" stroke="null" fill="#2196f3"/>
 </g>
</svg>