<?xml version="1.0" standalone="yes"?>
<svg xmlns="http://www.w3.org/2000/svg" width="400" height="237">
<path style="fill:#100f96; stroke:none;" d="M0 0L0 237L400 237L400 0L0 0z"/>
<path style="fill:#ffff07; stroke:none;" d="M80 80.4676C55.8406 85.0255 52.3414 117.815 74 128.544C80.8378 131.931 91.5398 130 99 130L146 130C153.16 130 162.077 128.587 169 130.573C174.719 132.213 178.539 137.753 182.285 142C189.074 149.697 198.765 158.871 210 157.801C219.792 156.868 227.54 149.949 233.83 143C238.714 137.605 243.135 130.78 251 130.094C272.326 128.233 294.587 130 316 130C324.267 130 336.638 132.296 344 127.995C364.569 115.978 360.757 83.9575 336 80.3009C320.292 77.9809 302.879 80 287 80L189 80L117 80C105.119 80 91.6879 78.2626 80 80.4676z"/>
<path style="fill:#100f96; stroke:none;" d="M205 109.639C187.123 114.721 193.71 143.158 212 138.441C230.129 133.766 222.991 104.524 205 109.639z"/>
</svg>
